<?xml version="1.0" standalone="no"?>
<!DOCTYPE svg PUBLIC "-//W3C//DTD SVG 20010904//EN"
 "http://www.w3.org/TR/2001/REC-SVG-20010904/DTD/svg10.dtd">
<svg version="1.0" xmlns="http://www.w3.org/2000/svg"
 width="512.000000pt" height="512.000000pt" viewBox="0 0 512.000000 512.000000"
 preserveAspectRatio="xMidYMid meet">
<metadata>
Created by potrace 1.11, written by Peter Selinger 2001-2013
</metadata>
<g transform="translate(0.000000,512.000000) scale(0.100000,-0.100000)"
fill="#000000" stroke="none">
<path d="M2368 5115 c-2 -1 -32 -5 -68 -9 -36 -3 -92 -11 -125 -16 -33 -6 -76
-13 -95 -16 -171 -27 -462 -126 -660 -225 -250 -126 -453 -272 -656 -473 -205
-203 -361 -416 -485 -658 -87 -171 -188 -445 -213 -578 -2 -14 -9 -46 -15 -72
-12 -52 -28 -157 -39 -253 -9 -81 -9 -443 1 -530 45 -410 192 -813 422 -1155
96 -141 110 -160 216 -279 344 -387 798 -662 1294 -785 226 -56 280 -61 630
-61 303 0 326 2 493 35 583 117 1116 440 1487 900 76 95 245 338 245 353 0 2
18 37 39 76 119 217 236 580 269 838 10 80 9 636 -1 703 -5 30 -11 69 -13 85
-10 74 -80 331 -122 445 -88 241 -242 515 -406 720 -99 124 -324 342 -456 441
-375 281 -780 443 -1250 503 -89 11 -481 20 -492 11z m462 -110 c40 -5 165
-25 245 -40 265 -50 580 -182 841 -353 622 -407 1031 -1085 1102 -1827 13
-138 5 -508 -13 -575 -2 -8 -6 -32 -9 -53 -83 -560 -415 -1134 -871 -1507
-277 -226 -652 -414 -965 -485 -8 -1 -34 -8 -56 -14 -187 -50 -573 -72 -804
-45 -1132 132 -2017 993 -2176 2119 -19 130 -24 431 -11 573 9 105 50 316 83
430 191 663 654 1222 1269 1529 196 99 449 185 635 218 67 12 225 34 265 37
59 5 413 0 465 -7z"/>
<path d="M2429 4926 c-2 -2 -44 -7 -92 -10 -72 -5 -213 -28 -307 -51 -228 -53
-510 -167 -706 -285 -293 -178 -598 -484 -776 -780 -223 -370 -351 -828 -351
-1255 0 -79 11 -261 19 -300 2 -11 6 -40 10 -65 16 -134 98 -414 170 -582 71
-167 224 -429 301 -513 10 -11 35 -41 56 -67 152 -189 430 -418 662 -546 295
-162 570 -249 890 -279 149 -15 543 -8 640 11 11 2 43 7 70 10 294 40 697 214
970 420 228 173 454 424 604 671 143 236 264 567 309 846 30 183 34 228 33
404 -2 221 -7 272 -47 485 -38 205 -162 532 -276 732 -200 352 -543 677 -926
880 -238 126 -540 224 -787 253 -27 4 -61 9 -75 11 -32 7 -385 16 -391 10z
m91 -160 c0 -74 -4 -104 -15 -116 -15 -16 -29 -78 -39 -171 -2 -25 -18 -93
-35 -150 -16 -57 -32 -115 -35 -129 -20 -101 -26 -129 -36 -155 -6 -16 -14
-57 -17 -90 -3 -33 -14 -86 -24 -118 -18 -58 -25 -98 -34 -212 -6 -75 -14
-151 -20 -190 -2 -16 -7 -59 -11 -95 -8 -82 -12 -90 -67 -119 l-45 -25 -99 66
c-54 35 -116 75 -138 88 -22 13 -52 34 -66 47 -17 15 -29 21 -33 14 -4 -6 7
-22 23 -37 22 -19 29 -33 25 -48 -3 -14 5 -32 23 -54 28 -33 49 -40 90 -27 20
6 23 2 34 -39 6 -26 21 -53 32 -61 20 -14 20 -14 -7 -41 -26 -26 -27 -27 -41
-8 -8 10 -18 32 -23 49 -6 23 -18 33 -51 45 -45 16 -81 56 -116 128 -14 27
-28 42 -45 46 -29 6 -183 154 -174 168 3 5 23 -7 45 -27 22 -20 43 -33 48 -31
4 3 29 -13 56 -35 37 -31 51 -37 61 -28 8 6 14 15 14 20 0 16 -144 110 -250
164 -105 54 -105 54 -369 318 l-264 265 49 47 c221 212 600 447 861 534 103
34 245 68 325 77 29 3 59 7 66 9 7 3 65 8 130 11 64 4 118 7 119 8 1 0 13 1
27 1 l26 0 0 -99z m290 89 c93 -6 118 -10 235 -30 102 -18 116 -21 184 -40
316 -90 671 -297 933 -545 l28 -26 -253 -252 c-138 -138 -280 -272 -313 -297
-35 -26 -67 -58 -74 -76 -19 -45 -146 -168 -189 -182 -27 -9 -37 -18 -39 -37
-2 -14 -24 -46 -50 -72 -36 -37 -55 -49 -89 -54 -42 -6 -43 -7 -43 -43 0 -31
-8 -44 -54 -89 -49 -49 -75 -57 -60 -19 6 16 -30 47 -56 47 -9 0 -21 5 -27 11
-9 9 -6 17 12 31 22 17 29 18 65 7 35 -11 43 -10 57 4 9 8 17 30 18 49 2 18 3
37 4 41 0 4 29 5 64 1 l64 -6 16 35 c9 19 17 41 17 48 0 19 81 99 100 99 9 0
31 16 50 35 19 19 42 35 52 35 18 0 78 55 78 71 0 16 -12 10 -52 -27 -22 -19
-46 -33 -53 -30 -7 2 -25 -9 -41 -25 -15 -16 -36 -29 -46 -29 -10 0 -34 -16
-54 -35 -19 -19 -39 -35 -44 -35 -5 0 -22 -13 -37 -30 -15 -16 -71 -52 -123
-78 -52 -27 -117 -61 -143 -76 -45 -27 -49 -27 -61 -11 -25 35 -81 209 -101
315 -47 258 -69 348 -92 382 -23 34 -24 43 -18 103 6 59 5 65 -13 65 -15 0
-22 -17 -40 -97 -12 -54 -23 -107 -25 -118 -6 -34 21 -74 56 -83 38 -10 38
-25 1 -79 -23 -35 -29 -52 -24 -83 3 -24 31 -50 54 -50 33 0 47 -14 53 -51 3
-19 11 -53 19 -77 16 -46 50 -199 49 -219 0 -16 -6 -16 -48 -8 -59 13 -152 63
-176 96 -13 17 -26 48 -28 68 -3 20 -8 63 -13 96 -12 91 -5 170 19 210 21 37
20 46 -15 105 -18 32 -10 118 20 212 21 64 21 69 6 83 -18 16 -21 53 -22 205
0 118 1 130 17 130 12 0 15 -14 15 -63 0 -37 6 -71 14 -83 8 -11 17 -46 21
-79 9 -84 14 -95 36 -95 19 0 20 4 14 68 -10 104 -41 243 -81 360 -33 95 -37
119 -38 212 -1 86 1 106 14 111 16 6 104 4 250 -6z m1463 -729 c338 -374 550
-825 593 -1261 11 -112 17 -218 15 -267 -1 -27 -120 -25 -176 2 -53 26 -189
31 -260 10 -72 -21 -294 -13 -322 13 -26 23 -56 22 -78 -3 -15 -16 -30 -19
-99 -18 -92 1 -120 9 -151 42 -24 26 -39 24 -80 -14 l-30 -28 -145 3 c-137 2
-149 4 -220 34 -99 41 -96 39 -110 91 -7 25 -21 62 -32 84 l-20 39 69 -5 c67
-5 160 -36 136 -45 -29 -11 -13 -57 36 -104 61 -59 80 -69 109 -58 17 6 22 16
22 43 0 36 -31 70 -91 102 -16 8 -29 19 -29 24 0 11 64 4 90 -10 10 -6 32 -10
48 -10 24 0 32 -7 47 -41 24 -53 53 -73 88 -60 14 5 31 18 38 29 8 10 23 23
33 29 17 10 26 3 67 -52 47 -62 48 -62 86 -55 52 10 70 19 77 36 8 20 165 20
192 -1 12 -9 44 -14 90 -15 54 0 73 -4 78 -15 6 -17 111 -21 136 -5 20 12 3
18 -77 22 -40 3 -69 10 -81 21 -12 11 -35 17 -66 17 -26 0 -57 7 -71 16 -23
15 -90 22 -102 10 -3 -3 -20 1 -39 9 -18 7 -57 13 -86 13 -39 0 -88 11 -174
41 -65 24 -139 47 -164 53 -25 5 -70 16 -100 25 -30 8 -75 19 -100 24 -25 4
-58 11 -75 14 -45 9 -139 38 -148 46 -5 3 2 17 16 31 13 13 37 48 54 78 47 87
73 125 201 293 66 87 135 186 153 220 26 48 93 122 307 339 151 153 278 278
282 278 3 0 32 -29 63 -64z m-3108 -231 c146 -146 265 -273 265 -283 0 -9 19
-42 43 -72 24 -30 62 -89 85 -130 22 -41 57 -93 76 -115 23 -25 36 -50 36 -68
0 -18 12 -41 36 -65 20 -20 45 -55 56 -76 22 -44 23 -45 73 -102 39 -47 35
-59 -25 -69 -194 -33 -399 -85 -530 -133 -30 -11 -80 -23 -110 -27 -30 -4 -73
-11 -95 -16 -22 -4 -62 -9 -88 -9 -26 0 -64 -7 -84 -15 -19 -8 -61 -15 -93
-15 -39 0 -62 -5 -70 -15 -8 -9 -30 -15 -58 -15 -28 0 -52 -6 -63 -16 -11 -9
-42 -18 -78 -21 -34 -2 -73 -11 -88 -18 -16 -8 -34 -15 -40 -15 -7 0 -13 -4
-13 -10 0 -6 -32 -10 -76 -10 l-77 0 6 113 c4 61 9 123 11 137 3 14 7 47 11
74 44 352 235 790 472 1084 51 62 146 171 151 172 1 0 121 -119 267 -265z
m1455 -720 c26 -32 -13 -81 -47 -59 -35 22 -23 74 17 74 10 0 23 -7 30 -15z
m-210 -14 c20 -38 -13 -71 -51 -51 -20 11 -23 27 -13 54 9 22 51 20 64 -3z
m384 -37 c16 -16 9 -45 -14 -59 -16 -10 -47 4 -53 24 -11 43 35 68 67 35z
m-554 -29 c11 -14 6 -54 -8 -56 -4 0 -15 -2 -24 -4 -24 -4 -41 20 -34 50 7 29
45 35 66 10z m706 -80 c12 -47 -44 -77 -66 -36 -13 25 -13 27 6 45 24 24 53
20 60 -9z m-840 -37 c11 -17 -6 -56 -26 -61 -40 -10 -69 51 -34 71 19 10 51 5
60 -10z m942 -90 c7 -7 12 -22 12 -35 0 -31 -47 -44 -67 -18 -17 24 -16 30 3
49 19 19 36 20 52 4z m-1198 -28 c19 -10 19 -13 4 -85 -11 -53 -56 -135 -86
-157 -31 -22 -58 -24 -234 -18 -39 2 -76 0 -83 -4 -6 -4 -24 5 -40 21 -24 24
-33 27 -62 22 -18 -4 -42 -17 -52 -30 -16 -20 -26 -22 -95 -20 -81 2 -137 15
-162 37 -13 11 -21 10 -50 -8 -33 -21 -46 -22 -198 -20 -166 2 -182 4 -182 25
0 8 20 11 66 9 48 -3 70 0 82 11 10 9 45 17 85 20 46 3 75 11 88 23 14 13 38
18 91 19 66 2 73 0 98 -26 31 -33 64 -41 118 -27 36 9 41 14 51 54 13 51 28
55 64 15 23 -26 29 -28 62 -21 43 10 61 23 91 72 26 40 55 52 154 63 80 9 111
15 129 25 21 12 38 12 61 0z m158 -50 c7 -42 -35 -61 -64 -29 -15 17 -15 20 0
43 13 20 20 24 39 17 12 -4 24 -18 25 -31z m685 -18 c82 -44 120 -115 120
-224 0 -75 -38 -155 -92 -192 -66 -46 -119 -56 -293 -56 -150 0 -192 9 -119
25 53 11 56 23 58 219 3 208 -1 224 -62 242 -57 17 -30 23 110 26 151 4 216
-6 278 -40z m432 -92 c4 -6 0 -22 -9 -35 -18 -27 -50 -24 -67 6 -14 27 23 64
51 49 10 -5 22 -15 25 -20z m-1155 -76 c0 -13 -7 -27 -16 -32 -42 -23 -81 23
-49 58 14 15 21 17 41 8 15 -7 24 -20 24 -34z m-1527 -84 c30 -6 67 -13 83
-16 41 -7 175 -35 199 -41 11 -3 61 -8 110 -12 50 -4 107 -15 127 -24 21 -9
47 -17 58 -17 11 0 20 -4 20 -10 0 -5 19 -10 43 -10 23 0 49 -4 56 -9 9 -6 22
-6 34 1 15 8 28 6 56 -9 20 -11 47 -18 61 -17 33 3 62 -5 55 -16 -10 -15 12
-20 112 -25 205 -11 254 -15 264 -21 6 -3 20 -7 32 -8 74 -9 125 -18 135 -25
24 -15 15 -57 -27 -125 -24 -39 -58 -100 -75 -136 -37 -74 -79 -139 -143 -218
-24 -30 -43 -57 -43 -62 0 -4 -16 -27 -35 -50 -19 -23 -35 -47 -35 -54 0 -7
-11 -23 -25 -36 -14 -13 -25 -31 -25 -41 0 -10 -12 -32 -28 -50 -15 -18 -31
-43 -37 -56 -5 -13 -122 -136 -259 -274 l-250 -249 -34 32 c-19 18 -69 74
-110 123 -236 281 -404 649 -477 1045 -21 114 -24 144 -31 287 -6 120 -5 131
11 135 31 6 123 0 178 -12z m4423 11 c18 -1 21 -6 18 -33 -1 -18 -5 -82 -9
-143 -7 -121 -10 -151 -26 -240 -6 -33 -13 -71 -16 -85 -48 -269 -216 -648
-391 -881 -85 -114 -224 -269 -241 -269 -3 0 -142 137 -309 304 -195 196 -302
311 -302 324 0 11 -11 27 -25 36 -14 9 -25 26 -25 38 0 11 -16 38 -35 59 -19
22 -35 45 -35 53 0 8 -18 32 -39 54 -22 22 -46 53 -55 70 -9 17 -29 39 -46 49
-20 11 -30 25 -30 40 0 13 -11 46 -25 73 -14 27 -25 55 -25 62 0 7 -20 48 -45
91 l-44 77 23 15 c12 8 45 19 73 24 28 6 67 21 87 34 45 31 153 58 243 61 38
1 73 5 78 8 16 9 255 66 305 72 25 3 92 12 150 20 58 8 128 17 155 20 81 10
166 26 220 43 68 21 220 31 371 24z m-1738 -40 c7 -47 -59 -64 -73 -19 -9 26
13 50 44 46 19 -2 27 -10 29 -27z m-1148 -66 c0 -35 -36 -52 -61 -29 -25 22
-24 39 3 58 28 20 58 4 58 -29z m1099 -97 c12 -30 -17 -63 -47 -54 -25 8 -32
25 -21 54 6 15 17 22 34 22 17 0 28 -7 34 -22z m-1045 -41 c21 -16 18 -45 -6
-61 -35 -22 -74 27 -48 59 15 18 31 19 54 2z m930 -93 c20 -8 21 -48 1 -64
-17 -14 -51 -5 -59 16 -3 9 -1 24 4 35 11 20 27 23 54 13z m-1034 -43 c0 -5
20 -36 44 -68 l44 -60 -41 -42 c-27 -29 -46 -41 -58 -38 -25 7 -59 -36 -52
-64 7 -25 -62 -92 -124 -120 -31 -15 -43 -27 -48 -49 -8 -35 -184 -205 -198
-191 -5 5 8 25 32 46 22 21 39 41 36 45 -3 4 11 27 30 51 19 24 35 51 35 60 0
8 16 34 36 57 26 31 43 42 64 42 42 0 57 9 80 46 20 31 20 35 6 56 -25 36 -21
51 15 46 45 -7 73 32 64 90 -4 27 -2 56 5 73 12 27 30 40 30 20z m228 -15 c9
-20 7 -27 -8 -41 -35 -32 -82 4 -60 46 15 27 54 24 68 -5z m1003 -28 c5 -10 5
-27 -1 -42 -7 -18 -5 -35 5 -61 13 -29 23 -37 60 -46 46 -12 54 -24 35 -59 -9
-16 -4 -25 27 -54 21 -20 46 -36 56 -36 9 0 17 -6 17 -13 0 -7 16 -28 35 -47
19 -19 35 -41 35 -49 0 -8 22 -40 48 -70 52 -60 97 -131 83 -131 -19 0 -181
163 -181 183 0 25 -27 57 -49 57 -19 1 -83 56 -99 87 -7 12 -12 31 -12 42 0
22 -34 45 -55 37 -8 -3 -40 26 -79 71 -62 72 -65 78 -50 94 16 18 18 18 42 -1
19 -15 28 -17 38 -9 11 9 11 17 -1 46 -8 19 -12 39 -9 45 7 10 40 -17 55 -44z
m-336 -31 c13 -10 16 -21 11 -40 -5 -21 -12 -27 -35 -27 -40 0 -54 35 -25 64
19 19 25 20 49 3z m-521 -33 c19 -19 20 -25 3 -49 -20 -26 -67 -13 -67 18 0
43 35 60 64 31z m186 -75 c0 -24 -29 -39 -57 -28 -34 12 -29 59 7 71 19 7 50
-20 50 -43z m164 45 c19 -7 21 -47 3 -62 -16 -14 -54 -5 -61 15 -3 8 -1 23 4
34 11 20 27 23 54 13z m-373 -147 c4 -42 7 -83 13 -167 9 -120 15 -201 20
-265 3 -27 8 -88 11 -135 4 -47 11 -92 16 -101 4 -9 8 -24 7 -35 -2 -27 11
-123 22 -164 5 -19 20 -80 35 -135 30 -115 33 -127 39 -175 15 -115 19 -138
32 -170 8 -19 21 -41 28 -50 10 -11 14 -49 14 -141 l1 -125 -57 2 c-59 1 -177
12 -215 20 -12 2 -39 6 -62 10 -196 28 -475 122 -670 225 -166 87 -402 254
-536 378 l-54 50 245 246 c135 135 250 243 257 241 7 -3 15 0 19 5 3 6 54 42
113 81 58 38 122 84 141 102 19 19 62 46 95 61 33 15 67 34 75 42 49 45 73 63
84 63 7 0 25 11 40 25 15 14 32 23 37 19 9 -5 76 48 144 114 l30 29 38 -19
c20 -10 38 -24 38 -31z m512 47 c14 -5 13 -12 -4 -51 -12 -29 -19 -65 -18 -99
2 -38 -3 -59 -15 -73 -9 -10 -18 -38 -20 -62 -2 -24 -4 -47 -5 -51 -1 -4 -19
-19 -40 -32 -27 -17 -43 -37 -52 -63 -16 -46 -14 -55 17 -104 13 -21 24 -43
24 -48 0 -5 -17 -18 -39 -28 l-39 -18 5 -70 c2 -38 9 -75 15 -82 6 -7 7 -21 3
-30 -4 -10 -8 -45 -7 -78 0 -41 -5 -66 -15 -77 -11 -12 -17 -45 -20 -110 -2
-51 -8 -104 -13 -118 -5 -14 -12 -40 -15 -58 -4 -17 -11 -32 -16 -32 -5 0 -9
1 -9 3 0 1 -3 73 -7 160 -6 151 -5 159 16 187 25 35 27 67 4 100 -31 44 -20
186 19 227 23 25 17 60 -14 82 -18 12 -19 22 -14 95 9 122 18 237 21 271 2 17
4 36 4 43 2 24 72 82 114 92 23 6 53 15 67 20 32 11 35 11 53 4z m173 -62
c114 -104 194 -168 194 -156 0 3 15 -8 33 -26 17 -17 79 -60 137 -94 58 -35
139 -88 182 -118 42 -30 90 -58 107 -61 23 -5 96 -72 298 -274 l267 -267 -60
-54 c-402 -365 -971 -591 -1504 -596 l-75 -1 3 194 c2 165 5 197 19 213 11 12
16 33 15 63 -2 32 3 50 17 64 14 14 19 34 20 81 0 37 7 72 15 85 15 23 27 145
27 277 0 53 4 78 13 81 8 3 26 41 42 84 15 43 31 80 35 83 5 3 32 91 62 195
49 170 87 265 105 265 4 0 25 -17 48 -38z"/>
<path d="M1661 4651 c-13 -23 10 -47 34 -37 21 8 19 33 -5 46 -15 8 -21 6 -29
-9z"/>
<path d="M1724 4486 c-8 -21 3 -36 27 -36 15 0 20 6 17 22 -4 27 -35 37 -44
14z"/>
<path d="M1797 4333 c-12 -12 -7 -41 7 -46 19 -8 38 16 30 37 -6 16 -25 21
-37 9z"/>
<path d="M1860 4170 c-12 -7 -12 -13 -4 -27 16 -26 39 -22 39 6 0 27 -13 35
-35 21z"/>
<path d="M1922 3988 c4 -27 33 -36 42 -13 8 22 -1 35 -25 35 -15 0 -20 -6 -17
-22z"/>
<path d="M1984 3836 c-8 -21 3 -36 27 -36 15 0 20 6 17 22 -4 27 -35 37 -44
14z"/>
<path d="M2057 3683 c-12 -12 -7 -41 7 -46 19 -8 38 16 30 37 -6 16 -25 21
-37 9z"/>
<path d="M2125 3516 c-16 -12 -17 -16 -6 -30 18 -21 28 -20 40 3 15 27 -9 46
-34 27z"/>
<path d="M2192 3361 c-19 -11 -11 -45 11 -49 9 -2 20 4 23 13 9 21 -16 47 -34
36z"/>
<path d="M3400 4664 c-11 -12 -11 -18 2 -30 14 -14 17 -14 31 1 18 17 13 45
-8 45 -7 0 -18 -7 -25 -16z"/>
<path d="M3331 4501 c-8 -14 -7 -22 4 -31 20 -17 45 3 38 30 -7 25 -29 26 -42
1z"/>
<path d="M3261 4341 c-16 -28 14 -51 36 -28 13 13 14 19 3 31 -17 21 -27 20
-39 -3z"/>
<path d="M3197 4187 c-16 -11 -16 -14 -3 -32 13 -18 16 -19 31 -4 9 9 13 23 9
32 -7 20 -15 21 -37 4z"/>
<path d="M3132 4031 c-18 -11 -11 -45 9 -49 9 -2 19 5 23 14 8 22 -14 46 -32
35z"/>
<path d="M3060 3865 c-16 -19 -5 -47 17 -43 22 4 29 43 9 51 -8 3 -20 -1 -26
-8z"/>
<path d="M2990 3705 c-16 -19 -5 -47 17 -43 22 4 29 43 9 51 -8 3 -20 -1 -26
-8z"/>
<path d="M2914 3535 c-8 -20 4 -35 27 -35 14 0 19 7 19 25 0 18 -5 25 -20 25
-11 0 -23 -7 -26 -15z"/>
<path d="M2585 3520 c-12 -38 6 -89 47 -129 34 -32 46 -38 72 -34 41 6 47 13
38 43 -10 35 -29 59 -84 103 -53 42 -64 45 -73 17z"/>
<path d="M2844 3375 c-8 -20 4 -35 27 -35 14 0 19 7 19 25 0 18 -5 25 -20 25
-11 0 -23 -7 -26 -15z"/>
<path d="M4636 3434 c-11 -29 13 -44 42 -26 17 12 4 42 -18 42 -10 0 -21 -7
-24 -16z"/>
<path d="M4481 3377 c-16 -16 -14 -34 5 -41 21 -8 34 1 34 24 0 22 -23 33 -39
17z"/>
<path d="M4317 3314 c-4 -4 -7 -16 -7 -26 0 -14 6 -19 23 -16 14 2 22 10 22
23 0 20 -25 32 -38 19z"/>
<path d="M4156 3244 c-16 -15 -16 -18 -2 -33 15 -14 18 -14 33 2 16 15 16 18
2 33 -15 14 -18 14 -33 -2z"/>
<path d="M3986 3174 c-8 -21 1 -34 24 -34 22 0 33 23 17 39 -16 16 -34 14 -41
-5z"/>
<path d="M3831 3116 c-14 -16 -4 -46 15 -46 7 0 18 9 24 20 8 15 6 21 -9 29
-14 8 -22 7 -30 -3z"/>
<path d="M3667 3054 c-4 -4 -7 -16 -7 -26 0 -14 6 -19 23 -16 14 2 22 10 22
23 0 20 -25 32 -38 19z"/>
<path d="M3497 2976 c-3 -8 0 -19 7 -25 18 -15 48 -3 44 18 -4 21 -44 27 -51
7z"/>
<path d="M440 3434 c-11 -12 -10 -18 3 -32 16 -15 18 -15 34 0 13 14 14 20 3
32 -7 9 -16 16 -20 16 -4 0 -13 -7 -20 -16z"/>
<path d="M599 3364 c-11 -14 -10 -18 6 -30 16 -12 21 -12 34 0 12 12 12 18 1
30 -16 20 -24 20 -41 0z"/>
<path d="M763 3299 c-16 -16 -5 -39 17 -39 25 0 35 18 20 35 -15 18 -22 19
-37 4z"/>
<path d="M922 3228 c-15 -18 1 -41 24 -36 23 4 26 41 3 46 -9 1 -21 -3 -27
-10z"/>
<path d="M1084 3155 c-4 -9 -2 -21 4 -27 15 -15 44 -1 40 19 -4 23 -36 29 -44
8z"/>
<path d="M1242 3078 c2 -15 10 -23 23 -23 30 0 27 39 -3 43 -20 3 -23 0 -20
-20z"/>
<path d="M1402 3008 c2 -15 10 -23 23 -23 30 0 27 39 -3 43 -20 3 -23 0 -20
-20z"/>
<path d="M1560 2941 c0 -26 15 -34 39 -21 26 14 16 40 -15 40 -17 0 -24 -6
-24 -19z"/>
<path d="M1698 2800 c-16 -5 -49 -24 -75 -43 -53 -39 -64 -74 -32 -103 28 -25
64 -11 130 53 67 64 80 104 32 102 -16 0 -40 -4 -55 -9z"/>
<path d="M2452 2586 c2 -165 6 -209 17 -215 24 -15 127 -5 163 16 55 32 82 93
82 187 0 95 -19 143 -72 184 -30 23 -47 28 -114 31 l-79 3 3 -206z"/>
<path d="M1716 2272 c-11 -10 -6 -40 7 -45 20 -8 39 8 35 28 -3 18 -31 29 -42
17z"/>
<path d="M1553 2194 c-3 -8 -1 -20 5 -26 16 -16 42 -2 42 22 0 24 -38 28 -47
4z"/>
<path d="M1389 2134 c-11 -14 -10 -18 6 -30 16 -12 21 -12 34 0 12 12 12 18 1
30 -16 20 -24 20 -41 0z"/>
<path d="M1227 2073 c-12 -11 -7 -33 8 -39 20 -8 45 13 38 32 -5 14 -34 19
-46 7z"/>
<path d="M1073 2013 c-7 -3 -13 -13 -13 -23 0 -19 17 -30 38 -23 6 3 12 13 12
23 0 19 -17 30 -37 23z"/>
<path d="M897 1937 c-8 -21 8 -39 29 -35 27 5 25 42 -2 46 -12 2 -24 -3 -27
-11z"/>
<path d="M740 1874 c-11 -12 -10 -18 3 -32 16 -15 18 -15 34 0 13 14 14 20 3
32 -7 9 -16 16 -20 16 -4 0 -13 -7 -20 -16z"/>
<path d="M574 1805 c-8 -19 3 -35 26 -35 19 0 30 17 23 38 -6 17 -42 15 -49
-3z"/>
<path d="M423 1753 c-19 -7 -16 -40 4 -47 21 -8 36 6 31 30 -3 19 -16 25 -35
17z"/>
<path d="M3343 2203 c-17 -6 -16 -28 1 -42 20 -17 52 15 35 35 -12 15 -16 16
-36 7z"/>
<path d="M3494 2126 c-8 -21 3 -36 27 -36 15 0 20 6 17 22 -4 27 -35 37 -44
14z"/>
<path d="M3654 2055 c-8 -19 3 -35 26 -35 22 0 33 23 17 39 -15 15 -37 14 -43
-4z"/>
<path d="M3814 1985 c-8 -19 3 -35 26 -35 19 0 30 17 23 38 -6 17 -42 15 -49
-3z"/>
<path d="M3978 1925 c-3 -3 -3 -15 -1 -26 7 -27 48 -22 48 6 0 19 -33 33 -47
20z"/>
<path d="M4137 1846 c-7 -19 18 -40 39 -32 8 3 14 14 12 23 -4 22 -43 29 -51
9z"/>
<path d="M4297 1784 c-10 -10 12 -44 27 -44 16 0 29 27 20 41 -6 10 -38 12
-47 3z"/>
<path d="M4461 1717 c-15 -19 9 -50 32 -41 20 7 22 25 5 42 -15 15 -23 15 -37
-1z"/>
<path d="M4624 1645 c-8 -21 0 -38 19 -41 21 -3 34 35 16 47 -20 12 -29 11
-35 -6z"/>
<path d="M2157 1761 c-6 -23 0 -31 24 -31 18 0 33 26 23 41 -10 16 -42 9 -47
-10z"/>
<path d="M2090 1595 c0 -22 4 -26 23 -23 14 2 22 10 22 23 0 13 -8 21 -22 23
-19 3 -23 -1 -23 -23z"/>
<path d="M2027 1454 c-4 -4 -7 -16 -7 -26 0 -14 6 -19 23 -16 14 2 22 10 22
23 0 20 -25 32 -38 19z"/>
<path d="M1957 1293 c-12 -12 -7 -41 7 -46 19 -7 40 18 32 38 -6 15 -28 20
-39 8z"/>
<path d="M1887 1134 c-12 -12 -8 -42 6 -47 21 -8 39 8 35 29 -3 19 -29 30 -41
18z"/>
<path d="M1823 973 c-17 -6 -17 -40 0 -46 20 -8 39 8 35 28 -3 20 -16 26 -35
18z"/>
<path d="M1746 805 c-8 -22 4 -46 23 -43 20 4 27 38 9 49 -19 12 -25 11 -32
-6z"/>
<path d="M1680 644 c-11 -12 -11 -18 2 -30 14 -14 17 -14 32 1 13 13 14 20 5
31 -15 18 -24 18 -39 -2z"/>
<path d="M1613 489 c-14 -14 -4 -49 13 -49 7 0 18 9 24 20 8 15 6 21 -8 29
-13 7 -22 7 -29 0z"/>
<path d="M2695 1838 c-58 -32 -85 -88 -80 -163 4 -51 15 -74 36 -75 14 0 38
38 48 77 7 24 21 47 31 53 21 11 24 35 14 89 -7 33 -17 37 -49 19z"/>
<path d="M2896 1564 c-10 -25 12 -46 35 -33 15 8 17 14 9 29 -13 24 -36 26
-44 4z"/>
<path d="M2967 1414 c-13 -13 -7 -42 10 -48 23 -9 40 10 27 31 -12 20 -27 26
-37 17z"/>
<path d="M3028 1244 c-12 -11 5 -44 22 -44 19 0 30 17 23 38 -5 12 -35 17 -45
6z"/>
<path d="M3093 1074 c-3 -8 1 -22 9 -30 13 -13 16 -13 27 0 7 9 11 23 7 31 -7
20 -35 19 -43 -1z"/>
<path d="M3160 914 c-11 -12 -11 -18 2 -30 14 -14 17 -14 32 1 13 13 14 20 5
31 -15 18 -24 18 -39 -2z"/>
<path d="M3232 761 c-19 -11 -11 -45 11 -49 9 -2 20 4 23 13 9 21 -16 47 -34
36z"/>
<path d="M3293 599 c-15 -15 -4 -49 17 -49 24 0 32 26 14 45 -18 18 -17 18
-31 4z"/>
<path d="M3354 425 c-4 -9 -2 -21 4 -27 15 -15 44 -1 40 19 -4 23 -36 29 -44
8z"/>
</g>
</svg>
